<svg width="458" height="465" viewBox="0 0 458 465" fill="none" xmlns="http://www.w3.org/2000/svg">
<path d="M457.336 410.209C457.336 410.209 454.37 397.76 433.609 401.909C412.848 406.059 409.882 410.209 409.882 410.209H457.336Z" fill="#3F3D56"/>
<path d="M386.155 410.209C386.155 410.209 402.764 400.131 409.882 410.209H386.155Z" fill="#3F3D56"/>
<path d="M63.1729 402.799C63.1729 402.799 60.207 390.35 39.446 394.499C18.685 398.649 15.7191 402.799 15.7191 402.799H63.1729Z" fill="#3F3D56"/>
<path d="M110.627 410.209C125.051 407.952 138.92 406.032 152.234 404.45L147.107 394.203C148.886 393.61 156.598 399.538 156.598 399.538L150.073 369.898C158.97 371.083 163.122 401.317 163.122 401.317L173.206 391.239L168.243 402.649C208.982 398.371 244.137 397.035 273.688 397.342L269.3 388.571C271.08 387.978 278.791 393.906 278.791 393.906L272.266 364.266C281.164 365.452 285.316 395.685 285.316 395.685L295.4 385.607L290.142 397.692C310.385 398.28 330.584 399.905 350.659 402.562C346.281 388.93 330.99 375.826 330.99 375.826C342.747 379.481 348.864 385.437 352.03 390.957C352.67 362.951 348.359 335.051 339.295 308.543C339.295 308.543 363.022 361.895 359.463 397.463L359.011 403.781C379.653 407 390.011 410.209 390.011 410.209H110.627Z" fill="#3F3D56"/>
<path d="M265.445 437.181C265.445 437.181 156.301 421.176 88.6793 437.181Z" fill="#3F3D56"/>
<path d="M426.195 459.115C426.195 459.115 317.051 443.109 249.429 459.115Z" fill="#3F3D56"/>
<path d="M223.923 465C223.923 465 159.279 448.616 119.228 465Z" fill="#3F3D56"/>
<path d="M43.3677 399.217L44.4219 398.673C30.7303 372.22 38.0517 337.866 46.604 313.705C52.4113 297.466 59.8184 281.843 68.7162 267.066L67.7135 266.433C58.7695 281.284 51.3238 296.987 45.486 313.309C36.8549 337.691 29.482 372.388 43.3677 399.217Z" fill="#3F3D56"/>
<path d="M33.2133 266.646L40.9094 308.737L39.7428 308.95L32.0467 266.859L33.2133 266.646Z" fill="#3F3D56"/>
<path d="M84.3892 302.507L85.2581 303.315L45.5156 345.997L44.6468 345.189L84.3892 302.507Z" fill="#3F3D56"/>
<path d="M12.9421 349.392L33.1006 377.26L32.1391 377.955L11.9805 350.086L12.9421 349.392Z" fill="#3F3D56"/>
<path d="M29.6587 255.487C26.3827 255.487 23.7269 252.832 23.7269 249.558C23.7269 246.285 26.3827 243.63 29.6587 243.63C32.9347 243.63 35.5904 246.285 35.5904 249.558C35.5904 252.832 32.9347 255.487 29.6587 255.487Z" fill="#00C2FF"/>
<path d="M94.3145 301.132C91.0385 301.132 88.3828 298.478 88.3828 295.204C88.3828 291.93 91.0385 289.276 94.3145 289.276C97.5904 289.276 100.246 291.93 100.246 295.204C100.246 298.478 97.5904 301.132 94.3145 301.132Z" fill="#3F3D56"/>
<path d="M68.2148 307.061C64.9388 307.061 62.2831 304.406 62.2831 301.133C62.2831 297.859 64.9388 295.204 68.2148 295.204C71.4909 295.204 74.1466 297.859 74.1466 301.133C74.1466 304.406 71.4909 307.061 68.2148 307.061Z" fill="#3F3D56"/>
<path d="M80.0783 330.18C76.8023 330.18 74.1466 327.526 74.1466 324.252C74.1466 320.978 76.8023 318.324 80.0783 318.324C83.3543 318.324 86.01 320.978 86.01 324.252C86.01 327.526 83.3543 330.18 80.0783 330.18Z" fill="#00C2FF"/>
<path d="M5.93173 345C2.65573 345 0 342.346 0 339.072C0 335.798 2.65573 333.144 5.93173 333.144C9.20774 333.144 11.8635 335.798 11.8635 339.072C11.8635 342.346 9.20774 345 5.93173 345Z" fill="#3F3D56"/>
<path d="M25.5064 351.521C22.2304 351.521 19.5747 348.867 19.5747 345.593C19.5747 342.319 22.2304 339.665 25.5064 339.665C28.7824 339.665 31.4381 342.319 31.4381 345.593C31.4381 348.867 28.7824 351.521 25.5064 351.521Z" fill="#3F3D56"/>
<path d="M11.8634 370.491C8.58743 370.491 5.9317 367.837 5.9317 364.563C5.9317 361.289 8.58743 358.635 11.8634 358.635C15.1394 358.635 17.7952 361.289 17.7952 364.563C17.7952 367.837 15.1394 370.491 11.8634 370.491Z" fill="#3F3D56"/>
<path d="M74.1465 262.6C70.8706 262.6 68.2148 259.946 68.2148 256.672C68.2148 253.398 70.8706 250.744 74.1465 250.744C77.4225 250.744 80.0782 253.398 80.0782 256.672C80.0782 259.946 77.4225 262.6 74.1465 262.6Z" fill="#3F3D56"/>
<path d="M100.149 203.404C100.149 292.925 153.4 324.182 219.089 324.182C284.778 324.182 338.03 292.925 338.03 203.404C338.03 113.884 219.089 0 219.089 0C219.089 0 100.149 113.884 100.149 203.404Z" fill="#F2F2F2"/>
<path d="M223.422 310.488L222.205 235.568L171.509 142.88L222.014 223.815L221.465 190.127L186.526 123.069L221.321 181.213L220.336 120.625L182.922 67.2377L220.181 111.097L219.566 0L223.433 147.073L223.115 141.005L261.153 82.8172L223.725 152.652L227.27 220.318L227.375 218.523L271.227 157.288L227.508 224.868L227.951 233.33L228.03 233.457L227.994 234.152L236.986 405.828H224.972L223.53 317.154L179.919 249.74L223.422 310.488Z" fill="#3F3D56"/>
<path d="M315.162 332.337L309.742 349.102C309.742 349.102 314.646 364.836 312.323 382.375C310 399.914 311.291 400.43 311.291 400.43C311.291 400.43 334.499 399.095 332.177 406.059C329.854 413.023 307.161 408.942 307.161 408.942C307.161 408.942 302.803 407.769 300.739 395.389C298.674 383.008 293.483 359.161 293.483 359.161L298.364 336.65L315.162 332.337Z" fill="#FFB8B8"/>
<path d="M313.356 298.032C313.356 298.032 323.163 301.643 323.163 311.444C323.163 321.245 319.55 334.658 317.227 335.432C314.904 336.205 299.419 346.781 296.58 339.301C293.741 331.821 313.356 298.032 313.356 298.032Z" fill="#00C2FF"/>
<path d="M231.283 414.1L210.636 413.327L194.892 411.005L199.538 426.481L237.735 427.513L231.283 414.1Z" fill="#FFB8B8"/>
<path d="M201.603 416.164C201.603 416.164 201.861 410.489 204.183 410.747C206.506 411.005 204.958 408.684 202.893 408.168C200.828 407.652 194.892 405.073 194.892 405.073L171.406 406.62C171.406 406.62 156.179 420.033 162.373 427.255C168.567 434.477 184.569 428.029 184.569 428.029L201.861 428.287C201.861 428.287 207.539 419.001 201.603 416.164Z" fill="#2F2E41"/>
<path d="M192.311 396.303L184.827 431.382L169.341 428.287L178.116 384.438L187.408 379.537L192.311 396.303Z" fill="#FFB8B8"/>
<path d="M281.352 391.918C281.352 391.918 324.712 411.521 306.387 431.382C306.387 431.382 306.387 440.667 287.03 438.862C267.674 437.056 230.251 433.703 228.444 434.735C226.637 435.767 220.959 414.358 225.863 413.327C230.767 412.295 236.703 411.005 236.703 411.005C236.703 411.005 231.541 410.231 231.541 405.847C231.541 405.847 216.83 404.815 212.442 395.53C208.055 386.244 203.925 379.28 203.925 379.28L193.86 405.073C193.86 405.073 182.246 383.665 173.471 393.208C173.471 393.208 183.278 331.563 190.763 325.888C198.247 320.214 203.409 318.408 210.378 323.567C217.346 328.726 223.798 341.88 223.798 341.88L281.352 391.918Z" fill="#2F2E41"/>
<path d="M177.858 420.807C179.663 422.167 181.386 423.631 183.02 425.191C185.085 427.255 187.924 426.223 188.182 425.191C188.44 424.16 193.086 425.965 193.602 433.445C194.118 440.925 197.215 447.631 188.956 449.953C180.697 452.274 180.955 458.98 180.955 458.98C174.421 462.113 166.921 462.576 160.05 460.27C148.436 456.401 152.565 452.274 152.565 452.274L168.051 426.739C168.051 426.739 172.18 419.001 177.858 420.807Z" fill="#2F2E41"/>
<path d="M220.701 292.873C220.701 292.873 195.925 301.385 193.344 303.19C190.763 304.996 179.149 313.508 184.827 317.892C190.505 322.277 195.15 325.114 206.248 321.761C217.346 318.408 229.734 308.091 229.734 308.091L220.701 292.873Z" fill="#FFB8B8"/>
<path d="M245.478 281.524C245.478 281.524 235.67 279.719 228.702 283.588C221.734 287.457 215.798 295.195 215.798 295.195C215.798 295.195 222.25 308.865 226.895 310.928C231.541 312.992 240.058 302.675 240.058 302.675L245.478 281.524Z" fill="#00C2FF"/>
<path d="M290.644 274.044C290.644 274.044 290.386 284.104 291.418 285.135C292.45 286.167 279.03 316.603 264.319 303.19C249.607 289.778 260.963 284.361 260.963 284.361C260.963 284.361 266.383 274.302 266.125 273.27C265.867 272.239 290.127 273.27 290.127 273.27L290.644 274.044Z" fill="#FFB8B8"/>
<path opacity="0.1" d="M290.644 274.044C290.644 274.044 290.386 284.104 291.418 285.135C292.45 286.167 279.03 316.603 264.319 303.19C249.607 289.778 260.963 284.361 260.963 284.361C260.963 284.361 266.383 274.302 266.125 273.27C265.867 272.239 290.127 273.27 290.127 273.27L290.644 274.044Z" fill="black"/>
<path d="M286.514 293.389C286.514 293.389 276.707 300.095 272.577 298.548C268.448 297 263.286 290.294 262.77 289.778C262.254 289.262 235.929 342.138 235.929 342.138C235.929 342.138 239.8 361.483 250.124 367.157C260.447 372.831 260.318 377.345 261.609 381.214C262.899 385.083 279.546 368.963 279.546 368.963L290.128 324.083V296.742L286.514 293.389Z" fill="#00C2FF"/>
<path d="M290.773 281.395C290.773 281.395 293.999 280.75 297.354 283.588C300.709 286.425 316.453 297 315.678 298.032C314.904 299.064 307.936 313.766 306.387 319.698C304.839 325.63 302.516 326.404 302.516 326.404C302.516 326.404 297.096 330.273 297.87 333.11C298.644 335.948 302 374.637 297.354 383.149C292.708 391.661 293.483 399.141 294.773 401.204C296.064 403.267 282.385 395.272 282.385 395.272C282.385 395.272 261.996 378.764 260.447 373.863C259.446 370.494 258.755 367.041 258.382 363.546C258.382 363.546 271.545 311.444 275.674 308.607C279.804 305.77 290.773 281.395 290.773 281.395Z" fill="#575A89"/>
<path d="M262.419 281.599C262.419 281.599 256.06 277.655 254.769 278.687C253.479 279.719 241.348 279.719 241.09 280.75C240.832 281.782 240.316 306.544 231.541 312.992C222.766 319.44 228.444 332.337 228.444 332.337L221.992 342.654C221.992 342.654 257.091 376.44 254.769 364.836C254.64 364.191 254.769 364.062 254.769 364.062C254.769 364.062 268.448 305.512 266.641 302.417C264.835 299.321 261.552 285.285 262.419 281.599Z" fill="#575A89"/>
<path d="M208.313 305.254L243.413 317.377C243.413 317.377 278.255 325.63 272.835 335.174C267.416 344.717 244.446 328.468 244.446 328.468L197.704 323.234C197.704 323.234 179.149 307.575 208.313 305.254Z" fill="#FFB8B8"/>
<path d="M276.707 283.588C266.159 283.588 257.608 275.042 257.608 264.501C257.608 253.96 266.159 245.414 276.707 245.414C287.255 245.414 295.805 253.96 295.805 264.501C295.805 275.042 287.255 283.588 276.707 283.588Z" fill="#FFB8B8"/>
<path d="M291.916 245.532L295.449 244.248C295.449 244.248 288.062 236.866 277.785 237.508L280.675 234.619C280.675 234.619 273.61 232.051 267.186 238.792C263.81 242.335 259.903 246.5 257.468 251.191H253.684L255.263 254.348L249.736 257.504L255.409 256.937C254.872 259.662 255.057 262.48 255.946 265.111L257.23 268.642C257.23 268.642 262.369 258.371 262.369 257.087V260.296C262.369 260.296 265.902 257.408 265.902 255.482L267.829 257.729L268.792 254.198L280.675 257.729L278.748 254.84L286.135 255.803L283.245 252.272C283.245 252.272 291.595 256.445 291.916 259.975C292.237 263.506 296.413 268 296.413 268L298.34 264.79C298.34 264.79 301.23 250.346 291.916 245.532Z" fill="#2F2E41"/>
</svg>
