<svg width="856" height="677" viewBox="0 0 856 677" fill="none" xmlns="http://www.w3.org/2000/svg">
<rect width="856" height="677" fill="transparent"/>
<g id="Tree-Swing" clip-path="url(#clip0)">
	<path id="Vector" d="M3.05176e-05 674.006H806V676.006H3.05176e-05V674.006Z" fill="#3F3D56"/>
	<g id="Low-Leaves-03">
		<path id="Vector_2" d="M528.591 646.841C523.891 664.215 507.792 674.975 507.792 674.975C507.792 674.975 499.314 657.566 504.014 640.192C508.714 622.819 524.812 612.058 524.812 612.058C524.812 612.058 533.291 629.467 528.591 646.841Z" fill="#3F3D56"/>
		<path id="Vector_3" d="M521.684 643.107C508.788 655.661 507.212 674.961 507.212 674.961C507.212 674.961 526.547 673.905 539.444 661.35C552.34 648.796 553.916 629.497 553.916 629.497C553.916 629.497 534.581 630.552 521.684 643.107Z" fill="#00BFA6"/>
	</g>
	<g id="Low-Leaves-02">
		<path id="Vector_4" d="M366.802 641.138C376.633 656.214 373.939 675.389 373.939 675.389C373.939 675.389 355.306 670.121 345.475 655.044C335.644 639.968 338.338 620.793 338.338 620.793C338.338 620.793 356.971 626.062 366.802 641.138Z" fill="#3F3D56"/>
		<path id="Vector_5" d="M359.417 643.803C360.194 661.785 373.542 675.812 373.542 675.812C373.542 675.812 385.63 660.686 384.853 642.704C384.076 624.722 370.728 610.695 370.728 610.695C370.728 610.695 358.64 625.822 359.417 643.803Z" fill="#00BFA6"/>
	</g>
	<g id="Low-Leaves -01">
		<path id="Vector_6" d="M70.8016 641.138C80.6326 656.214 77.9389 675.389 77.9389 675.389C77.9389 675.389 59.3061 670.121 49.4751 655.044C39.6441 639.968 42.3378 620.793 42.3378 620.793C42.3378 620.793 60.9707 626.062 70.8016 641.138Z" fill="#3F3D56"/>
		<path id="Vector_7" d="M63.417 643.803C64.1941 661.785 77.5422 675.812 77.5422 675.812C77.5422 675.812 89.6304 660.686 88.8534 642.704C88.0763 624.722 74.7282 610.695 74.7282 610.695C74.7282 610.695 62.64 625.822 63.417 643.803Z" fill="#00BFA6"/>
	</g>
	<g id="Girl-Swing">
		<path id="Vector_8" d="M258 584.853H260V366.006C259.999 365.114 260.197 364.234 260.58 363.428C260.962 362.623 261.52 361.914 262.213 361.352L260.949 359.802C260.026 360.55 259.282 361.496 258.772 362.57C258.262 363.643 257.998 364.817 258 366.006V584.853Z" fill="#3F3D56"/>
		<path id="Vector_9" d="M236.57 530.01C236.57 530.01 225.258 518.143 220.629 520.531C215.999 522.918 233.94 533.53 233.94 533.53L236.57 530.01Z" fill="#FFB9B9"/>
		<path id="Vector_10" opacity="0.1" d="M236.57 530.01C236.57 530.01 225.258 518.143 220.629 520.531C215.999 522.918 233.94 533.53 233.94 533.53L236.57 530.01Z" fill="black"/>
		<path id="Vector_11" d="M271.084 504.109C271.084 504.109 275.242 511.562 274.154 519.597C273.066 527.632 263.115 553.415 259.732 552.956C256.349 552.498 231.289 534.032 231.289 534.032L236.068 527.359L254.375 538.451C254.375 538.451 257.164 498.779 271.084 504.109Z" fill="#D0CDE1"/>
		<path id="Vector_12" d="M203.202 522.253L231.742 537.93C231.907 538.04 232.095 538.112 232.291 538.142C232.487 538.171 232.688 538.157 232.878 538.101C233.069 538.045 233.245 537.948 233.394 537.816C233.543 537.685 233.661 537.522 233.74 537.34L240.731 522.727C240.864 522.31 240.842 521.86 240.671 521.458C240.499 521.056 240.189 520.729 239.796 520.536L216.101 508.323C215.81 508.147 215.463 508.086 215.129 508.149C214.794 508.213 214.495 508.398 214.288 508.669L202.453 519.82C202.336 520.028 202.263 520.257 202.238 520.494C202.213 520.73 202.236 520.97 202.306 521.197C202.376 521.425 202.491 521.636 202.646 521.817C202.8 521.999 202.989 522.147 203.202 522.253V522.253Z" fill="#2F2E41"/>
		<path id="Vector_13" d="M205.107 520.094L231.862 535.387L238.982 522.555L216.03 510.073L205.107 520.094Z" fill="#00BFA6"/>
		<path id="Vector_14" d="M227.555 515.674C227.416 515.507 227.418 515.276 227.561 515.157C227.703 515.038 227.931 515.077 228.071 515.244C228.21 515.411 228.208 515.643 228.065 515.762C227.923 515.88 227.694 515.841 227.555 515.674Z" fill="#F2F2F2"/>
		<path id="Vector_15" d="M217.707 528.731C217.614 528.62 217.616 528.465 217.711 528.386C217.806 528.307 217.958 528.333 218.051 528.444C218.144 528.556 218.142 528.71 218.047 528.789C217.952 528.869 217.8 528.842 217.707 528.731Z" fill="#F2F2F2"/>
		<path id="Vector_16" opacity="0.1" d="M271.084 504.109C271.084 504.109 275.242 511.562 274.154 519.597C273.066 527.632 263.115 553.415 259.732 552.956C256.349 552.498 231.289 534.032 231.289 534.032L236.068 527.359L254.375 538.451C254.375 538.451 257.164 498.779 271.084 504.109Z" fill="black"/>
		<path id="Vector_17" d="M244.218 532.278C244.218 532.278 231.416 522.036 227.148 525.023C222.881 528.011 242.084 536.119 242.084 536.119L244.218 532.278Z" fill="#FFB9B9"/>
		<path id="Vector_18" d="M261.288 491.311C254.453 491.311 248.912 485.77 248.912 478.935C248.912 472.1 254.453 466.559 261.288 466.559C268.123 466.559 273.663 472.1 273.663 478.935C273.663 485.77 268.123 491.311 261.288 491.311Z" fill="#FFB9B9"/>
		<path id="Vector_19" d="M218.613 565.137C218.613 565.137 205.384 566.844 205.811 574.952C206.238 583.061 216.053 616.773 216.053 616.773L216.906 630.002C216.906 630.002 216.053 652.193 218.613 651.766C221.174 651.34 227.148 635.977 227.148 635.977C227.148 635.977 234.403 631.283 230.989 627.015C227.575 622.748 225.015 623.174 225.868 618.48C226.722 613.786 226.295 594.156 223.734 588.181C221.174 582.207 219.682 578.912 219.682 578.912L228.002 578.366L218.613 565.137Z" fill="#FFB9B9"/>
		<path id="Vector_20" opacity="0.1" d="M218.613 565.137C218.613 565.137 205.384 566.844 205.811 574.952C206.238 583.061 216.053 616.773 216.053 616.773L216.906 630.002C216.906 630.002 216.053 652.193 218.613 651.766C221.174 651.34 227.148 635.977 227.148 635.977C227.148 635.977 234.403 631.283 230.989 627.015C227.575 622.748 225.015 623.174 225.868 618.48C226.722 613.786 226.295 594.156 223.734 588.181C221.174 582.207 219.682 578.912 219.682 578.912L228.002 578.366L218.613 565.137Z" fill="black"/>
		<path id="Vector_21" d="M217.76 567.271C217.76 567.271 204.958 570.258 203.677 578.793C202.397 587.328 195.996 612.506 195.996 612.506L189.168 628.295C189.168 628.295 178.499 647.499 183.194 647.072C187.888 646.645 194.289 637.257 196.423 637.257C198.556 637.257 204.958 634.697 204.531 632.99C204.104 631.283 201.117 626.162 201.117 626.162L211.441 608.177C213.435 604.705 214.942 600.976 215.92 597.094C216.98 592.882 218.187 587.722 218.187 586.048C218.187 583.061 226.721 581.78 226.721 581.78L217.76 567.271Z" fill="#FFB9B9"/>
		<path id="Vector_22" d="M259.581 539.959L253.606 557.029C253.606 557.029 244.218 559.59 237.39 561.723C230.562 563.857 217.76 560.87 216.48 565.991C215.199 571.112 219.04 580.073 222.881 582.207C226.722 584.341 228.855 586.474 241.231 583.06C253.606 579.647 283.052 578.793 283.052 578.793C285.906 580.506 289.121 581.529 292.44 581.78C297.988 582.207 299.268 582.634 300.975 581.354C302.682 580.073 300.122 580.073 299.268 576.659C298.415 573.245 297.988 574.526 294.147 570.685C290.306 566.844 287.319 555.322 285.185 551.481C283.052 547.641 281.771 539.959 281.771 539.959H259.581Z" fill="#2F2E41"/>
		<path id="Vector_23" d="M260.434 489.177C261.985 490.309 263.253 491.784 264.141 493.486C265.029 495.189 265.513 497.072 265.555 498.992C265.555 505.393 278.358 492.164 278.358 492.164C278.358 492.164 271.53 483.629 271.53 481.069C271.53 478.508 260.434 489.177 260.434 489.177Z" fill="#FFB9B9"/>
		<path id="Vector_24" d="M276.651 486.616C276.651 486.616 268.969 489.604 267.262 493.871C265.555 498.138 259.154 507.1 259.154 507.1C259.154 507.1 250.193 516.488 253.18 526.73C256.167 536.972 258.727 539.533 258.727 541.24C258.727 542.947 262.995 545.934 266.409 545.507C269.823 545.08 282.625 543.373 283.479 541.666C284.332 539.959 289.453 515.635 286.039 506.673C283.27 499.825 280.136 493.13 276.651 486.616V486.616Z" fill="#D0CDE1"/>
		<path id="Vector_25" d="M257.698 479.498C254.929 480.155 252.211 478.391 249.942 476.641C248.653 475.648 247.235 474.231 247.63 472.633C247.98 471.214 249.651 470.41 249.895 468.969C250.064 467.967 249.478 466.993 249.431 465.977C249.473 465.203 249.727 464.456 250.165 463.817C250.603 463.178 251.208 462.671 251.915 462.353C253.264 461.627 254.794 461.324 256.181 460.674C258.297 459.681 260.057 457.891 262.317 457.317C265.406 456.534 268.55 458.202 271.726 458.418C273.647 458.548 275.593 458.143 277.494 458.458C279.307 458.825 280.944 459.791 282.14 461.201C283.337 462.611 284.024 464.383 284.091 466.232C284.116 467.59 283.844 469.105 284.655 470.182C284.975 470.553 285.34 470.884 285.741 471.166C288.564 473.449 289.846 477.264 289.992 480.939C290.064 482.748 289.685 484.897 288.08 485.666C287.22 485.96 286.312 486.087 285.405 486.038C284.949 486.019 284.495 486.111 284.083 486.308C283.672 486.505 283.314 486.799 283.043 487.166C282.312 488.455 283.407 490.36 282.451 491.485C281.732 492.331 280.331 492.05 279.492 491.33C278.654 490.609 278.13 489.573 277.335 488.803C275.788 487.305 273.494 487.033 271.374 486.806C270.745 486.801 270.134 486.6 269.625 486.232C269.24 485.828 268.989 485.314 268.908 484.762C268.629 483.49 268.625 482.174 268.897 480.901C269.032 480.507 269.049 480.082 268.946 479.679C268.806 479.392 268.589 479.149 268.32 478.978C267.006 477.99 264.704 476.553 262.996 476.825C261.101 477.127 259.61 479.044 257.698 479.498Z" fill="#2F2E41"/>
		<path id="Vector_26" d="M274.944 501.979C274.944 501.979 280.065 508.807 280.065 516.915C280.065 525.023 273.663 551.908 270.249 551.908C266.836 551.908 239.524 536.972 239.524 536.972L243.365 529.717L262.995 538.252C262.995 538.252 260.434 498.565 274.944 501.979Z" fill="#D0CDE1"/>
		<path id="Vector_27" d="M217 579.006H315V598.006H217V579.006Z" fill="#00BFA6"/>
		<path id="Vector_28" d="M266 599.006C268.121 599.003 270.154 598.16 271.654 596.66C273.154 595.16 273.998 593.127 274 591.006V366.006C274 364.493 273.571 363.011 272.763 361.732C271.955 360.454 270.801 359.43 269.435 358.781C268.068 358.131 266.546 357.882 265.044 358.063C263.542 358.244 262.122 358.847 260.949 359.802L262.213 361.352C263.093 360.636 264.158 360.184 265.284 360.049C266.41 359.913 267.552 360.1 268.577 360.587C269.601 361.074 270.467 361.842 271.073 362.801C271.679 363.76 272 364.871 272 366.006V591.006C271.998 592.596 271.366 594.122 270.241 595.246C269.116 596.371 267.591 597.004 266 597.006V599.006Z" fill="#3F3D56"/>
		<path id="Vector_29" d="M281.122 473.345C280.691 472.999 281.183 471.672 282.221 470.38C283.258 469.088 284.448 468.321 284.879 468.667C285.309 469.013 284.817 470.34 283.78 471.632C282.742 472.924 281.552 473.691 281.122 473.345Z" fill="#00BFA6"/>
	</g>
	<g id="High-Leaves">
		<path id="Vector_30" d="M564.43 172.047C565.551 190.01 579.165 203.779 579.165 203.779C579.165 203.779 590.962 188.424 589.84 170.461C588.719 152.497 575.105 138.728 575.105 138.728C575.105 138.728 563.309 154.083 564.43 172.047Z" fill="#00BFA6"/>
		<path id="Vector_31" d="M706.346 58.4851C691.121 68.0839 685.568 86.6339 685.568 86.6339C685.568 86.6339 704.699 89.621 719.924 80.0222C735.149 70.4233 740.703 51.8734 740.703 51.8734C740.703 51.8734 721.571 48.8862 706.346 58.4851Z" fill="#00BFA6"/>
		<path id="Vector_32" d="M740.346 277.485C725.121 287.084 719.568 305.634 719.568 305.634C719.568 305.634 738.699 308.621 753.924 299.022C769.149 289.423 774.703 270.873 774.703 270.873C774.703 270.873 755.571 267.886 740.346 277.485Z" fill="#00BFA6"/>
		<path id="Vector_33" d="M430.826 90.5011C435.418 107.904 451.449 118.764 451.449 118.764C451.449 118.764 460.035 101.409 455.444 84.0061C450.853 66.6033 434.822 55.7429 434.822 55.7429C434.822 55.7429 426.235 73.0983 430.826 90.5011Z" fill="#00BFA6"/>
		<path id="Vector_34" d="M285.991 104.071C291.387 121.241 307.907 131.343 307.907 131.343C307.907 131.343 315.676 113.607 310.28 96.4367C304.883 79.2664 288.364 69.1641 288.364 69.1641C288.364 69.1641 280.594 86.9003 285.991 104.071Z" fill="#00BFA6"/>
		<path id="Vector_35" d="M129.446 295.168C139.222 310.28 157.835 315.617 157.835 315.617C157.835 315.617 160.599 296.452 150.824 281.34C141.048 266.227 122.435 260.89 122.435 260.89C122.435 260.89 119.671 280.055 129.446 295.168Z" fill="#00BFA6"/>
	</g>
	<path id="Vector_36" d="M261.406 292.683C300.736 313.183 352.186 330.883 367.596 336.013C355.846 332.953 321.646 328.833 268.656 361.893C202.076 403.423 130.886 375.733 130.886 375.733C130.886 375.733 146.706 406.063 180.326 408.033C213.946 410.013 301.616 354.643 331.276 370.463C360.946 386.283 374.786 366.503 386.656 406.063C398.516 445.613 420.266 553.713 395.216 614.363L370.176 675.003H512.556C512.556 675.003 461.136 537.893 489.486 453.523C505.356 406.273 527.636 372.053 535.946 354.663C540.116 345.953 540.776 341.473 535.376 341.693C532.306 341.823 527.276 343.473 519.806 346.733C519.806 346.733 554.086 313.113 565.286 313.113C576.496 313.113 629.236 307.843 646.366 290.043C646.366 290.043 670.756 272.903 714.266 315.093C757.776 357.283 747.226 357.283 786.116 353.983C824.396 350.733 854.386 332.163 855.316 331.583C854.206 332.033 809.496 349.903 782.166 340.803C754.476 331.573 730.746 296.633 706.356 284.773C681.966 272.903 667.466 257.083 634.506 274.223L656.226 223.013L662.176 208.983L662.186 208.963C662.186 208.963 669.446 112.723 683.286 106.133C697.126 99.5328 688.556 82.4028 714.266 79.1028C714.266 79.1028 682.626 75.1428 676.696 96.9028C670.756 118.653 629.886 235.993 629.886 235.993C629.886 235.993 604.846 286.083 577.156 274.223C549.466 262.353 587.706 195.783 587.706 195.783L635.166 174.023C635.166 174.023 599.566 172.703 577.816 193.143C556.066 213.573 554.746 279.493 554.746 279.493C554.746 279.493 500.036 287.403 486.846 317.073C486.846 317.073 478.276 290.703 494.756 274.883C498.876 270.923 503.206 264.043 507.376 255.953C523.183 224.902 528.896 189.689 523.716 155.233C521.266 138.373 519.756 121.883 522.446 117.993C528.376 109.423 553.426 56.6928 555.406 42.8428C557.376 29.0028 553.426 0.00283813 553.426 0.00283813C553.426 0.00283813 552.766 35.5928 544.856 46.8028C536.946 58.0128 514.536 113.383 514.536 113.383C514.536 113.383 514.536 183.253 496.076 217.533C477.616 251.813 442.026 290.043 443.996 315.093V329.593C443.996 329.593 404.446 292.023 407.086 279.493C409.726 266.973 413.016 237.303 438.066 219.513C463.116 201.713 479.596 173.363 461.796 132.493C451.786 109.503 447.406 97.1528 445.486 90.7428L455.866 135.133C455.866 135.133 462.456 180.613 443.996 196.433C443.946 196.473 443.906 196.513 443.856 196.553C425.426 212.393 401.156 241.263 401.156 241.263L401.226 239.993L406.426 146.343L405.286 148.843L397.066 166.863L389.286 183.913C389.286 183.913 352.376 136.453 308.866 120.633C265.366 104.813 238.336 49.4428 238.336 49.4428L201.416 20.4328L231.746 56.6928C231.746 56.6928 240.976 99.5328 293.046 129.863C345.126 160.183 378.736 205.003 380.716 232.693C382.696 260.383 384.676 284.773 384.676 284.773C384.676 284.773 287.116 281.473 265.366 238.623C243.606 195.783 225.806 193.803 225.806 193.803L238.336 230.713L252.176 262.353C252.176 262.353 195.486 263.673 165.826 297.293C136.156 330.913 62.336 340.803 62.336 340.803L103.856 352.003C103.856 352.003 143.416 338.823 180.986 314.433C218.556 290.043 214.606 268.293 261.406 292.683Z" fill="#3F3D56"/>
</g>
<defs>
	<clipPath id="clip0">
	<rect width="855.316" height="676.006" fill="white" transform="matrix(-1 0 0 1 855.316 0)"/>
	</clipPath>
</defs>
</svg>