<svg width="921" height="1293" viewBox="0 0 921 1293" fill="none" xmlns="http://www.w3.org/2000/svg">
<path d="M14.2174 1119.18C52.2083 998.986 196.501 969.566 210.17 825.627C220.709 714.664 136.188 659.202 136.188 552.875C136.188 446.548 234.165 398.007 280.154 330.975C326.143 263.943 300.149 236.206 300.149 236.206H920V980.495C920 980.495 875.81 975.615 848.017 980.495C788.975 990.859 810.026 1027.42 712.05 1061.4C614.073 1095.37 546.09 955.069 422.12 996.675C361.521 1017.01 340.139 1040.59 300.149 1119.18C260.158 1197.77 240.007 1226.88 182.177 1269.43C116.193 1317.97 32.2131 1269.43 32.2131 1269.43C32.2131 1269.43 -23.7734 1239.38 14.2174 1119.18Z" fill="url(#Light_Part2)"/>
<path d="M300.149 236.206H920C920 236.206 920 98.0051 920 12.6461C920 -72.713 793.983 305.355 742 213.85C714.666 165.733 776.901 114.35 742 71.5845C687.654 4.99304 624.63 249.838 560 193.526C518.835 157.659 571.573 92.9973 532 55.3256C463.476 -9.90564 453.4 235.823 360 226.044C326.584 222.545 280.154 193.526 280.154 193.526L300.149 236.206Z" fill="url(#Light_Part1)"/>
<path d="M29.0017 1100.7C66.3725 985.069 208.31 956.766 221.756 818.29C232.123 711.539 148.982 658.182 148.982 555.891C148.982 453.599 245.359 406.901 290.597 342.413C335.836 277.925 310.266 251.24 310.266 251.24H920V967.28C920 967.28 876.531 962.586 849.192 967.28C791.114 977.251 811.821 1012.42 715.444 1045.11C619.067 1077.8 552.193 942.819 430.246 982.846C370.637 1002.41 349.604 1025.1 310.266 1100.7C270.928 1176.31 251.106 1204.32 194.22 1245.25C129.313 1291.94 46.7037 1245.25 46.7037 1245.25C46.7037 1245.25 -8.36908 1216.34 29.0017 1100.7Z" fill="url(#Dark_Part2-2)"/>
<path d="M310.266 251.24H920C920 251.24 920 118.285 920 36.1661C920 -45.9532 796.04 317.766 744.905 229.733C718.017 183.443 779.237 134.009 744.905 92.8675C691.446 28.8035 629.451 264.355 565.876 210.181C525.383 175.675 577.26 113.468 538.333 77.2257C470.927 14.4703 461.016 250.873 369.14 241.464C336.27 238.098 290.597 210.181 290.597 210.181L310.266 251.24Z" fill="url(#Dark_Part1-1)"/>
<defs>
<linearGradient id="Light_Part2" x1="600.077" y1="393.384" x2="-87.6673" y2="1218.41" gradientUnits="userSpaceOnUse">
<stop offset="0.0677083" stop-color="#99FFFF"/>
<stop offset="1" stop-color="#CC99FF"/>
</linearGradient>
<linearGradient id="Light_Part1" x1="600.077" y1="393.384" x2="-87.6673" y2="1218.41" gradientUnits="userSpaceOnUse">
<stop offset="0.0677083" stop-color="#99FFFF"/>
<stop offset="1" stop-color="#CC99FF"/>
</linearGradient>
<linearGradient id="Dark_Part2-2" x1="605.299" y1="402.453" x2="-53.5415" y2="1210.58" gradientUnits="userSpaceOnUse">
<stop offset="0.0677083" stop-color="#5A38E6"/>
<stop offset="1" stop-color="#CE26E8"/>
</linearGradient>
<linearGradient id="Dark_Part1-1" x1="605.299" y1="402.453" x2="-53.5415" y2="1210.58" gradientUnits="userSpaceOnUse">
<stop offset="0.0677083" stop-color="#5A38E6"/>
<stop offset="1" stop-color="#CE26E8"/>
</linearGradient>
</defs>
</svg>
