<svg width="506" height="553" viewBox="0 0 506 553" fill="none" xmlns="http://www.w3.org/2000/svg">
<path d="M0 1.80411H454C454 1.80411 542 -12.196 488 37.804C434 87.8039 522 239.804 454 239.804C368 239.804 482.571 131.6 414 121.804C345.429 112.008 437.267 303.804 368 303.804C278 303.804 387.776 153.804 314 153.804C240.224 153.804 352.858 497.804 266 497.804C179.142 497.804 314 211.804 196 211.804C107.742 211.804 232.258 459.804 144 459.804C76 459.804 160 289.804 98 289.804C36 289.804 139.616 537.525 40 551.804C24.5371 554.021 0 551.804 0 551.804V1.80411Z" fill="url(#WaveLight)"/>
<path d="M0 1.69383H435.563C435.563 1.69383 519.99 -11.4505 468.183 35.4932C416.376 82.4369 500.802 225.146 435.563 225.146C353.056 225.146 462.974 123.556 397.188 114.359C331.401 105.161 419.51 285.234 353.056 285.234C266.711 285.234 372.029 144.403 301.249 144.403C230.469 144.403 338.529 467.376 255.198 467.376C171.867 467.376 301.249 198.857 188.041 198.857C103.367 198.857 222.826 431.698 138.152 431.698C72.9137 431.698 153.503 272.09 94.0203 272.09C34.5381 272.09 133.946 504.669 38.3756 518.075C23.5407 520.156 0 518.075 0 518.075V1.69383Z" fill="url(#DarkWave)"/>
<defs>
<linearGradient id="WaveLight" x1="252.765" y1="-8.4457e-06" x2="252.765" y2="552.789" gradientUnits="userSpaceOnUse">
<stop stop-color="#CC99FF"/>
<stop offset="1" stop-color="#99FFFF"/>
</linearGradient>
<linearGradient id="DarkWave" x1="242.5" y1="-7.92945e-06" x2="242.5" y2="519" gradientUnits="userSpaceOnUse">
<stop stop-color="#8517F3"/>
<stop offset="1" stop-color="#00C2FF"/>
</linearGradient>
</defs>
</svg>
