<svg width="574" height="527" viewBox="0 0 574 527" fill="none" xmlns="http://www.w3.org/2000/svg">
<path d="M14.6465 118.976C50.5619 43.156 105.732 3.19288 189.573 0.138183C247.994 -1.99037 297.22 20.8134 325.146 44.9759C333.72 52.3935 354.146 79.4759 365.573 82.1382C365.573 82.1382 373.591 83.9759 375.646 82.1382C393.72 65.9759 403.28 57.9828 427.073 53.1382C459.42 46.552 489.738 49.8461 517.646 67.4761C553.725 90.2675 571.796 121.31 572.646 163.976C573.264 194.969 562.646 218.601 552.146 233.476C540.146 250.476 530.144 256.976 529.074 262.976C528.388 266.82 529.074 269.139 529.074 269.139C529.074 269.139 562.374 305.476 569.146 337.476C575.919 369.476 575.421 407.137 560.146 440.476C548.988 464.832 537.487 477.142 516.646 493.976C492.669 513.343 475.146 521.416 443.646 525.476C409.071 529.932 382.251 524.139 356.573 511.138C331.858 498.625 311.411 479.313 300.646 464.476C289.365 448.926 285.646 438.976 279.646 420.976C276.66 412.015 272.056 403.476 268.646 400.976C261.146 395.476 254.646 392.642 250.146 392.476C223.146 391.476 206.215 395.117 182.146 392.476C161.134 390.17 148.646 388.243 128.646 380.976C108.646 373.708 78.1465 355.976 62.1465 339.476C44.1766 320.944 25.4649 297.53 13.0736 264.639C1.05975 232.749 -2.40295 205.476 1.57358 178.139L1.60059 177.953C4.61045 157.26 5.68588 137.893 14.6465 118.976Z" fill="url(#paint0_linear_17_10)"/>
<defs>
<linearGradient id="paint0_linear_17_10" x1="11.6464" y1="130.976" x2="435.646" y2="248.976" gradientUnits="userSpaceOnUse">
<stop stop-color="#00D1FF" stop-opacity="0.9"/>
<stop offset="1" stop-color="#C371E7" stop-opacity="0.9"/>
</linearGradient>
</defs>
</svg>
