<svg width="779" height="613" viewBox="0 0 779 613" fill="none" xmlns="http://www.w3.org/2000/svg">
<g clip-path="url(#clip0_2_97)">
<path d="M565.296 1.55919C440.816 -20.3901 195.237 282.117 191.468 420.454C187.698 558.791 721.294 651.226 768.573 534.079C815.852 416.933 689.776 23.5082 565.296 1.55919Z" fill="url(#paint0_linear_2_97)"/>
<path d="M274.531 81C157.66 81 -17.384 392.553 1.39499 517.785C20.173 643.017 520.883 641.528 545.125 528.476C569.366 415.423 391.4 81 274.531 81Z" fill="url(#paint1_linear_2_97)"/>
<path d="M627.278 206.603C626.079 193.69 622.768 181.062 617.476 169.223C616.001 165.928 614.378 162.706 612.606 159.556C612.517 159.391 612.495 159.198 612.546 159.018C612.597 158.838 612.716 158.685 612.877 158.59C613.039 158.496 613.23 158.468 613.412 158.512C613.594 158.556 613.751 158.67 613.851 158.828C620.295 170.3 624.809 182.753 627.213 195.689C627.881 199.301 628.384 202.94 628.721 206.603C628.806 207.527 627.363 207.522 627.278 206.603Z" fill="#E6E6E6"/>
<path d="M609.112 161.87C604.066 161.87 599.975 157.779 599.975 152.733C599.975 147.687 604.066 143.596 609.112 143.596C614.158 143.596 618.248 147.687 618.248 152.733C618.248 157.779 614.158 161.87 609.112 161.87Z" fill="#E6E6E6"/>
<path d="M626.343 206.846C625.566 198.469 623.417 190.276 619.985 182.596C619.028 180.458 617.975 178.367 616.825 176.324C616.767 176.217 616.754 176.092 616.786 175.975C616.819 175.858 616.895 175.759 617 175.698C617.105 175.636 617.23 175.618 617.348 175.647C617.466 175.676 617.568 175.749 617.633 175.852C621.813 183.294 624.742 191.374 626.301 199.765C626.735 202.109 627.061 204.469 627.28 206.846C627.335 207.446 626.398 207.442 626.343 206.846Z" fill="#E6E6E6"/>
<path d="M614.558 177.825C611.284 177.825 608.631 175.171 608.631 171.898C608.631 168.624 611.284 165.97 614.558 165.97C617.832 165.97 620.485 168.624 620.485 171.898C620.485 175.171 617.832 177.825 614.558 177.825Z" fill="#E6E6E6"/>
<path d="M627.525 206.286C632.064 199.202 635.408 191.422 637.426 183.253C637.986 180.98 638.441 178.684 638.793 176.366C638.813 176.246 638.878 176.139 638.976 176.067C639.074 175.995 639.196 175.964 639.317 175.98C639.437 175.996 639.546 176.058 639.621 176.154C639.696 176.249 639.732 176.37 639.72 176.491C638.438 184.93 635.778 193.101 631.846 200.678C630.747 202.792 629.553 204.854 628.263 206.862C627.938 207.369 627.202 206.79 627.525 206.286Z" fill="#E6E6E6"/>
<path d="M639.727 177.409C636.454 177.409 633.8 174.755 633.8 171.482C633.8 168.208 636.454 165.554 639.727 165.554C643.001 165.554 645.655 168.208 645.655 171.482C645.655 174.755 643.001 177.409 639.727 177.409Z" fill="#E6E6E6"/>
<path d="M645.721 211.531V199.885C645.72 198.727 645.259 197.617 644.441 196.798C643.622 195.98 642.511 195.519 641.354 195.518H614.18C613.022 195.519 611.913 195.98 611.094 196.798C610.275 197.617 609.815 198.727 609.813 199.885V211.531C609.815 212.688 610.275 213.799 611.094 214.617C611.913 215.436 613.022 215.897 614.18 215.898H641.354C642.511 215.897 643.622 215.436 644.441 214.617C645.259 213.799 645.72 212.688 645.721 211.531Z" fill="#F2F2F2"/>
<path d="M615.151 137.288H626.796C627.954 137.287 629.064 136.826 629.883 136.008C630.702 135.189 631.163 134.079 631.164 132.921V85.3672C631.163 84.2093 630.702 83.0993 629.883 82.2806C629.064 81.4618 627.954 81.0013 626.796 81H615.151C613.993 81.0013 612.883 81.4618 612.064 82.2806C611.245 83.0993 610.785 84.2093 610.783 85.3672V132.921C610.785 134.079 611.245 135.189 612.064 136.008C612.883 136.826 613.993 137.287 615.151 137.288Z" fill="#F2F2F2"/>
<path d="M611.269 90.22H630.678V94.102H611.269V90.22Z" fill="#CCCCCC"/>
<path d="M611.269 120.305H630.678V124.187H611.269V120.305Z" fill="#CCCCCC"/>
<path d="M586.036 137.288H597.682C598.84 137.287 599.95 136.826 600.769 136.008C601.587 135.189 602.048 134.079 602.049 132.921V85.3672C602.048 84.2093 601.587 83.0993 600.769 82.2806C599.95 81.4618 598.84 81.0013 597.682 81H586.036C584.878 81.0013 583.769 81.4618 582.95 82.2806C582.131 83.0993 581.671 84.2093 581.669 85.3672V132.921C581.671 134.079 582.131 135.189 582.95 136.008C583.769 136.826 584.878 137.287 586.036 137.288Z" fill="#F2F2F2"/>
<path d="M582.154 90.22H601.564V94.102H582.154V90.22Z" fill="#CCCCCC"/>
<path d="M582.154 120.305H601.564V124.187H582.154V120.305Z" fill="#CCCCCC"/>
<path d="M556.921 137.288H568.567C569.725 137.287 570.835 136.826 571.654 136.008C572.472 135.189 572.933 134.079 572.934 132.921V85.3672C572.933 84.2093 572.472 83.0993 571.654 82.2806C570.835 81.4618 569.725 81.0013 568.567 81H556.921C555.763 81.0013 554.653 81.4618 553.835 82.2806C553.016 83.0993 552.556 84.2093 552.554 85.3672V132.921C552.556 134.079 553.016 135.189 553.835 136.008C554.653 136.826 555.763 137.287 556.921 137.288Z" fill="#F2F2F2"/>
<path d="M553.039 90.22H572.449V94.102H553.039V90.22Z" fill="#CCCCCC"/>
<path d="M553.039 120.305H572.449V124.187H553.039V120.305Z" fill="#CCCCCC"/>
<path d="M541.393 215.898H553.039C554.197 215.897 555.307 215.436 556.126 214.617C556.945 213.799 557.406 212.689 557.406 211.531V163.977C557.406 162.819 556.945 161.709 556.126 160.89C555.307 160.071 554.197 159.611 553.039 159.61H541.393C540.236 159.611 539.125 160.071 538.307 160.89C537.488 161.709 537.028 162.819 537.026 163.977V211.531C537.028 212.689 537.488 213.799 538.307 214.617C539.125 215.436 540.236 215.897 541.393 215.898Z" fill="#F2F2F2"/>
<path d="M537.511 168.829H556.921V172.711H537.511V168.829Z" fill="#CCCCCC"/>
<path d="M537.511 198.914H556.921V202.796H537.511V198.914Z" fill="#CCCCCC"/>
<path d="M512.279 215.898H523.925C525.082 215.897 526.193 215.436 527.012 214.617C527.83 213.799 528.291 212.689 528.292 211.531V163.977C528.291 162.819 527.83 161.709 527.012 160.89C526.193 160.071 525.082 159.611 523.925 159.61H512.279C511.121 159.611 510.011 160.071 509.193 160.89C508.374 161.709 507.914 162.819 507.912 163.977V211.531C507.914 212.689 508.374 213.799 509.193 214.617C510.011 215.436 511.121 215.897 512.279 215.898Z" fill="#F2F2F2"/>
<path d="M508.397 168.829H527.807V172.711H508.397V168.829Z" fill="#CCCCCC"/>
<path d="M508.397 198.914H527.807V202.796H508.397V198.914Z" fill="#CCCCCC"/>
<path d="M483.164 215.898H494.81C495.968 215.897 497.078 215.436 497.897 214.617C498.715 213.799 499.176 212.689 499.177 211.531V163.977C499.176 162.819 498.715 161.709 497.897 160.89C497.078 160.071 495.968 159.611 494.81 159.61H483.164C482.006 159.611 480.896 160.071 480.078 160.89C479.259 161.709 478.799 162.819 478.797 163.977V211.531C478.799 212.689 479.259 213.799 480.078 214.617C480.896 215.436 482.006 215.897 483.164 215.898Z" fill="#F2F2F2"/>
<path d="M479.282 168.829H498.692V172.711H479.282V168.829Z" fill="#CCCCCC"/>
<path d="M479.282 198.914H498.692V202.796H479.282V198.914Z" fill="#CCCCCC"/>
<path d="M618.062 294.507H629.708C630.866 294.506 631.976 294.045 632.795 293.226C633.613 292.408 634.074 291.298 634.075 290.14V242.586C634.074 241.428 633.613 240.318 632.795 239.499C631.976 238.681 630.866 238.22 629.708 238.219H618.062C616.904 238.22 615.795 238.681 614.976 239.499C614.157 240.318 613.697 241.428 613.695 242.586V290.14C613.697 291.298 614.157 292.408 614.976 293.226C615.795 294.045 616.904 294.506 618.062 294.507Z" fill="#F2F2F2"/>
<path d="M614.18 247.439H633.59V251.321H614.18V247.439Z" fill="#CCCCCC"/>
<path d="M614.18 277.524H633.59V281.406H614.18V277.524Z" fill="#CCCCCC"/>
<path d="M588.947 294.507H600.593C601.751 294.506 602.861 294.045 603.68 293.226C604.498 292.408 604.959 291.298 604.96 290.14V242.586C604.959 241.428 604.498 240.318 603.68 239.499C602.861 238.681 601.751 238.22 600.593 238.219H588.947C587.789 238.22 586.68 238.681 585.861 239.499C585.042 240.318 584.582 241.428 584.58 242.586V290.14C584.582 291.298 585.042 292.408 585.861 293.226C586.68 294.045 587.789 294.506 588.947 294.507Z" fill="#F2F2F2"/>
<path d="M585.065 247.439H604.475V251.321H585.065V247.439Z" fill="#CCCCCC"/>
<path d="M585.065 277.524H604.475V281.406H585.065V277.524Z" fill="#CCCCCC"/>
<path d="M559.833 294.507H571.479C572.636 294.506 573.747 294.045 574.566 293.226C575.384 292.408 575.845 291.298 575.846 290.14V242.586C575.845 241.428 575.384 240.318 574.566 239.499C573.747 238.681 572.636 238.22 571.479 238.219H559.833C558.675 238.22 557.565 238.681 556.747 239.499C555.927 240.318 555.468 241.428 555.466 242.586V290.14C555.468 291.298 555.927 292.408 556.747 293.226C557.565 294.045 558.675 294.506 559.833 294.507Z" fill="#F2F2F2"/>
<path d="M555.951 247.439H575.36V251.321H555.951V247.439Z" fill="#CCCCCC"/>
<path d="M555.951 277.524H575.36V281.406H555.951V277.524Z" fill="#CCCCCC"/>
<path d="M527.807 137.288H539.453C540.61 137.287 541.721 136.826 542.54 136.008C543.358 135.189 543.819 134.079 543.82 132.921V85.3672C543.819 84.2093 543.358 83.0993 542.54 82.2806C541.721 81.4618 540.61 81.0013 539.453 81H527.807C526.649 81.0013 525.539 81.4618 524.72 82.2806C523.901 83.0993 523.441 84.2093 523.439 85.3672V132.921C523.441 134.079 523.901 135.189 524.72 136.008C525.539 136.826 526.649 137.287 527.807 137.288Z" fill="#F2F2F2"/>
<path d="M523.925 90.22H543.334V94.102H523.925V90.22Z" fill="#CCCCCC"/>
<path d="M523.925 120.305H543.334V124.187H523.925V120.305Z" fill="#CCCCCC"/>
<path d="M498.692 137.288H510.338C511.496 137.287 512.606 136.826 513.425 136.008C514.243 135.189 514.704 134.079 514.705 132.921V85.3672C514.704 84.2093 514.243 83.0993 513.425 82.2806C512.606 81.4618 511.496 81.0013 510.338 81H498.692C497.534 81.0013 496.424 81.4618 495.606 82.2806C494.787 83.0993 494.327 84.2093 494.325 85.3672V132.921C494.327 134.079 494.787 135.189 495.606 136.008C496.424 136.826 497.534 137.287 498.692 137.288Z" fill="#F2F2F2"/>
<path d="M494.81 90.22H514.22V94.102H494.81V90.22Z" fill="#CCCCCC"/>
<path d="M494.81 120.305H514.22V124.187H494.81V120.305Z" fill="#CCCCCC"/>
<path d="M469.577 137.288H481.223C482.381 137.287 483.491 136.826 484.31 136.008C485.128 135.189 485.589 134.079 485.59 132.921V85.3672C485.589 84.2093 485.128 83.0993 484.31 82.2806C483.491 81.4618 482.381 81.0013 481.223 81H469.577C468.42 81.0013 467.31 81.4618 466.491 82.2806C465.672 83.0993 465.212 84.2093 465.21 85.3672V132.921C465.212 134.079 465.672 135.189 466.491 136.008C467.31 136.826 468.42 137.287 469.577 137.288Z" fill="#F2F2F2"/>
<path d="M465.695 90.22H485.105V94.102H465.695V90.22Z" fill="#CCCCCC"/>
<path d="M465.695 120.305H485.105V124.187H465.695V120.305Z" fill="#CCCCCC"/>
<path d="M440.463 137.288H452.109C453.266 137.287 454.377 136.826 455.196 136.008C456.015 135.189 456.475 134.079 456.476 132.921V85.3672C456.475 84.2093 456.015 83.0993 455.196 82.2806C454.377 81.4618 453.266 81.0013 452.109 81H440.463C439.305 81.0013 438.196 81.4618 437.377 82.2806C436.557 83.0993 436.097 84.2093 436.095 85.3672V132.921C436.097 134.079 436.557 135.189 437.377 136.008C438.196 136.826 439.305 137.287 440.463 137.288Z" fill="#F2F2F2"/>
<path d="M436.581 90.22H455.991V94.102H436.581V90.22Z" fill="#CCCCCC"/>
<path d="M436.581 120.305H455.991V124.187H436.581V120.305Z" fill="#CCCCCC"/>
<path d="M396.848 138.744H673.437C673.695 138.744 673.942 138.642 674.124 138.46C674.306 138.278 674.408 138.031 674.408 137.773C674.408 137.516 674.306 137.269 674.124 137.087C673.942 136.905 673.695 136.803 673.437 136.803H396.848C396.591 136.803 396.344 136.905 396.162 137.087C395.981 137.269 395.878 137.516 395.878 137.773C395.878 138.031 395.981 138.278 396.162 138.46C396.344 138.642 396.591 138.744 396.848 138.744Z" fill="#CCCCCC"/>
<path d="M396.848 217.354H673.437C673.695 217.354 673.942 217.252 674.124 217.069C674.306 216.888 674.408 216.64 674.408 216.383C674.408 216.126 674.306 215.878 674.124 215.697C673.942 215.514 673.695 215.413 673.437 215.413H396.848C396.591 215.413 396.344 215.514 396.162 215.697C395.981 215.878 395.878 216.126 395.878 216.383C395.878 216.64 395.981 216.888 396.162 217.069C396.344 217.252 396.591 217.354 396.848 217.354Z" fill="#CCCCCC"/>
<path d="M396.848 295.963H673.437C673.695 295.963 673.942 295.861 674.124 295.679C674.306 295.497 674.408 295.25 674.408 294.992C674.408 294.735 674.306 294.488 674.124 294.306C673.942 294.124 673.695 294.022 673.437 294.022H396.848C396.591 294.022 396.344 294.124 396.162 294.306C395.981 294.488 395.878 294.735 395.878 294.992C395.878 295.25 395.981 295.497 396.162 295.679C396.344 295.861 396.591 295.963 396.848 295.963Z" fill="#CCCCCC"/>
<path d="M413.228 448.312C413.228 440.808 441.471 434.725 476.31 434.725C511.149 434.725 539.391 440.808 539.391 448.312C539.391 453.122 527.78 457.344 510.277 459.759V534.2C510.277 535.873 509.613 537.478 508.43 538.661C507.247 539.844 505.642 540.509 503.969 540.509C502.295 540.509 500.691 539.844 499.508 538.661C498.325 537.478 497.66 535.873 497.66 534.2V461.099C490.991 461.617 483.806 461.899 476.31 461.899C468.815 461.899 461.628 461.617 454.959 461.099V534.2C454.959 535.873 454.295 537.478 453.112 538.661C451.929 539.844 450.324 540.509 448.651 540.509C446.978 540.509 445.373 539.844 444.19 538.661C443.007 537.478 442.343 535.873 442.343 534.2V459.759C424.84 457.344 413.228 453.122 413.228 448.312Z" fill="#CCCCCC"/>
<path d="M425.366 528.304H413.468L407.808 482.411H425.368L425.366 528.304Z" fill="#FFB8B8"/>
<path d="M390.521 539.351L427.915 539.352L427.916 524.904L404.97 524.903C401.139 524.903 397.463 526.425 394.754 529.135C392.044 531.844 390.521 535.519 390.521 539.351Z" fill="#2F2E41"/>
<path d="M406.793 521.664L395.441 518.101L403.779 472.619L420.534 477.876L406.793 521.664Z" fill="#FFB8B8"/>
<path d="M370.24 521.771L405.918 532.968L410.244 519.183L388.351 512.313C384.695 511.165 380.732 511.517 377.336 513.291C373.94 515.065 371.387 518.115 370.24 521.771Z" fill="#2F2E41"/>
<path d="M414.754 500.541L436.519 443.407C441.401 444.553 482.351 453.615 496.067 439.012C500.767 434.007 501.684 426.756 498.791 417.459L490.788 407.401L490.538 407.415C487.512 407.574 416.359 411.562 411.481 433.024C407.369 451.119 399.859 484.854 397.655 494.763C397.431 495.788 397.584 496.862 398.086 497.785C398.586 498.709 399.402 499.421 400.386 499.793L409.138 503.075C409.627 503.258 410.143 503.352 410.664 503.352C411.55 503.352 412.416 503.083 413.146 502.582C413.875 502.079 414.436 501.368 414.754 500.541Z" fill="#2F2E41"/>
<path d="M427.37 507.334L449.135 450.201C454.019 451.347 494.967 460.407 508.683 445.805C513.383 440.8 514.3 433.549 511.407 424.253L503.404 414.195L503.154 414.208C500.128 414.367 428.975 418.355 424.097 439.817C419.986 457.912 412.475 491.647 410.271 501.556C410.048 502.582 410.2 503.655 410.702 504.578C411.203 505.502 412.019 506.214 413.002 506.586L421.755 509.868C422.243 510.052 422.759 510.146 423.28 510.146C424.166 510.146 425.032 509.877 425.762 509.375C426.492 508.872 427.053 508.161 427.37 507.334Z" fill="#2F2E41"/>
<path d="M397.955 370.376C398.278 370.806 398.565 371.261 398.814 371.737L446.68 376.779L453.569 367.333L469.185 375.867L455.652 398.792L396.95 383.824C395.469 385.268 393.583 386.227 391.544 386.574C389.505 386.919 387.409 386.637 385.534 385.762C383.659 384.888 382.096 383.464 381.051 381.679C380.004 379.895 379.528 377.833 379.682 375.771C379.836 373.709 380.615 371.742 381.914 370.132C383.213 368.523 384.971 367.347 386.955 366.762C388.939 366.176 391.054 366.208 393.02 366.854C394.984 367.5 396.706 368.728 397.955 370.376Z" fill="#FFB8B8"/>
<path d="M511.715 427.27C512.37 426.797 512.882 426.154 513.194 425.409C513.505 424.664 513.604 423.847 513.48 423.049C510.78 405.248 513.887 379.747 516.969 361.488C517.6 357.784 517.354 353.984 516.252 350.391C515.149 346.798 513.222 343.514 510.622 340.801C508.022 338.087 504.822 336.02 501.28 334.766C497.738 333.511 493.951 333.104 490.222 333.576C486.979 334.004 483.766 334.638 480.603 335.473C475.348 336.795 470.699 339.868 467.422 344.183C464.144 348.498 462.434 353.801 462.569 359.218C463.029 376.837 459.452 398.819 457.893 407.453C457.787 408.046 457.803 408.654 457.942 409.24C458.082 409.826 458.34 410.378 458.702 410.86C459.056 411.337 459.508 411.733 460.025 412.027C460.542 412.319 461.115 412.5 461.706 412.558C478.989 414.322 497.626 422.75 507.197 427.617C507.813 427.934 508.494 428.101 509.187 428.103C510.096 428.1 510.982 427.808 511.715 427.27Z" fill="#63A5FF"/>
<path d="M465.064 381.354C465.597 381.145 466.085 380.831 466.497 380.432C466.909 380.033 467.238 379.555 467.464 379.028L477.103 356.762C477.686 355.417 477.998 353.97 478.023 352.504C478.047 351.038 477.782 349.582 477.242 348.218C476.704 346.854 475.901 345.61 474.88 344.556C473.86 343.504 472.642 342.661 471.297 342.079C469.951 341.497 468.504 341.185 467.038 341.162C465.571 341.139 464.115 341.405 462.752 341.946C461.388 342.486 460.145 343.29 459.093 344.311C458.04 345.332 457.2 346.55 456.618 347.897L446.98 370.162C446.521 371.224 446.503 372.426 446.929 373.503C447.355 374.579 448.191 375.443 449.252 375.904L461.721 381.301C462.247 381.531 462.813 381.654 463.387 381.663C463.96 381.672 464.531 381.567 465.064 381.354Z" fill="#63A5FF"/>
<path d="M443.568 368.435C443.891 368.865 444.178 369.32 444.427 369.796L492.293 374.838L499.182 365.392L514.798 373.926L501.265 396.851L442.563 381.883C441.082 383.327 439.196 384.286 437.157 384.633C435.118 384.978 433.022 384.696 431.147 383.821C429.272 382.947 427.709 381.523 426.663 379.738C425.617 377.954 425.141 375.892 425.295 373.83C425.449 371.768 426.228 369.801 427.527 368.192C428.826 366.583 430.584 365.406 432.568 364.821C434.552 364.235 436.667 364.267 438.632 364.913C440.597 365.559 442.319 366.787 443.568 368.435Z" fill="#FFB8B8"/>
<path d="M510.677 382.325C511.21 382.115 511.698 381.802 512.11 381.402C512.521 381.003 512.85 380.526 513.077 379.999L522.715 357.733C523.299 356.388 523.611 354.941 523.635 353.474C523.66 352.009 523.395 350.552 522.855 349.189C522.317 347.824 521.514 346.581 520.493 345.527C519.473 344.474 518.255 343.632 516.91 343.049C515.564 342.467 514.117 342.155 512.651 342.132C511.184 342.11 509.728 342.376 508.365 342.916C507.001 343.457 505.758 344.26 504.706 345.281C503.653 346.302 502.813 347.52 502.231 348.867L492.592 371.132C492.133 372.195 492.116 373.396 492.542 374.474C492.968 375.55 493.804 376.414 494.865 376.875L507.334 382.272C507.86 382.502 508.426 382.625 509 382.634C509.573 382.642 510.144 382.537 510.677 382.325Z" fill="#63A5FF"/>
<path d="M491.997 326.002C478.832 326.002 468.16 315.33 468.16 302.166C468.16 289.001 478.832 278.329 491.997 278.329C505.161 278.329 515.833 289.001 515.833 302.166C515.833 315.33 505.161 326.002 491.997 326.002Z" fill="#FFB8B8"/>
<path d="M509.039 318.525C509.141 318.225 509.173 317.907 509.134 317.593C509.094 317.28 508.983 316.979 508.809 316.715C508.635 316.451 508.403 316.23 508.131 316.07C507.858 315.91 507.553 315.814 507.237 315.789C506.592 315.824 505.96 315.989 505.381 316.276C504.8 316.562 504.285 316.963 503.864 317.454C503.001 318.447 501.998 319.31 500.883 320.013C499.731 320.594 498.167 320.511 497.509 319.402C496.892 318.362 497.315 316.968 497.689 315.76C498.64 312.685 499.172 309.496 499.271 306.279C499.378 302.688 498.872 298.94 496.883 296.139C494.317 292.524 489.73 291.152 485.388 291.251C481.046 291.35 476.774 292.691 472.473 293.538C470.989 293.831 469.243 293.98 468.25 292.829C467.194 291.606 467.582 289.626 468.031 287.973C469.196 283.687 470.432 279.254 473.141 275.792C476.069 272.194 480.251 269.84 484.846 269.202C489.257 268.656 493.735 269.164 497.911 270.685C504.715 272.83 510.702 277.001 515.072 282.64C519.576 288.638 521.523 296.175 520.485 303.603C519.472 310.073 516.043 315.918 510.891 319.96L509.039 318.525Z" fill="#2F2E41"/>
<path d="M600.051 375.908C598.852 362.996 595.541 350.368 590.249 338.528C588.774 335.233 587.15 332.011 585.379 328.861C585.29 328.697 585.268 328.504 585.319 328.323C585.369 328.144 585.488 327.989 585.65 327.895C585.812 327.801 586.003 327.773 586.185 327.818C586.367 327.861 586.524 327.975 586.624 328.133C593.068 339.605 597.582 352.058 599.986 364.994C600.654 368.607 601.157 372.245 601.494 375.908C601.579 376.832 600.136 376.826 600.051 375.908Z" fill="#3F3D56"/>
<path d="M581.884 331.174C576.839 331.174 572.748 327.084 572.748 322.038C572.748 316.993 576.839 312.902 581.884 312.902C586.931 312.902 591.021 316.993 591.021 322.038C591.021 327.084 586.931 331.174 581.884 331.174Z" fill="#63A5FF"/>
<path d="M599.116 376.151C598.339 367.774 596.19 359.581 592.757 351.9C591.8 349.763 590.748 347.673 589.597 345.629C589.54 345.522 589.526 345.397 589.559 345.28C589.592 345.164 589.668 345.064 589.773 345.003C589.878 344.942 590.003 344.923 590.121 344.952C590.239 344.98 590.341 345.054 590.406 345.157C594.586 352.6 597.515 360.678 599.074 369.071C599.508 371.415 599.834 373.774 600.053 376.151C600.108 376.75 599.171 376.746 599.116 376.151Z" fill="#3F3D56"/>
<path d="M587.331 347.13C584.057 347.13 581.404 344.477 581.404 341.203C581.404 337.929 584.057 335.276 587.331 335.276C590.605 335.276 593.258 337.929 593.258 341.203C593.258 344.477 590.605 347.13 587.331 347.13Z" fill="#63A5FF"/>
<path d="M600.298 375.592C604.837 368.508 608.181 360.727 610.199 352.559C610.759 350.285 611.214 347.989 611.566 345.672C611.585 345.551 611.651 345.444 611.749 345.373C611.847 345.3 611.969 345.269 612.09 345.285C612.21 345.302 612.319 345.364 612.394 345.459C612.469 345.554 612.505 345.674 612.492 345.796C611.211 354.235 608.551 362.407 604.619 369.982C603.52 372.097 602.326 374.159 601.036 376.167C600.711 376.674 599.975 376.095 600.298 375.592Z" fill="#3F3D56"/>
<path d="M612.5 346.714C609.227 346.714 606.573 344.061 606.573 340.787C606.573 337.514 609.227 334.859 612.5 334.859C615.774 334.859 618.428 337.514 618.428 340.787C618.428 344.061 615.774 346.714 612.5 346.714Z" fill="#63A5FF"/>
<path d="M618.494 380.836V369.19C618.493 368.032 618.032 366.922 617.214 366.103C616.395 365.284 615.284 364.824 614.127 364.823H586.953C585.795 364.824 584.685 365.284 583.867 366.103C583.048 366.922 582.588 368.032 582.586 369.19V380.836C582.588 381.994 583.048 383.103 583.867 383.922C584.685 384.742 585.795 385.202 586.953 385.203H614.127C615.284 385.202 616.395 384.742 617.214 383.922C618.032 383.103 618.493 381.994 618.494 380.836Z" fill="#CCCCCC"/>
<path d="M374.894 377.467H451.562C453.438 377.467 454.959 378.987 454.959 380.863C454.959 382.739 453.438 384.26 451.562 384.26H374.894C373.018 384.26 371.497 382.739 371.497 380.863C371.497 378.987 373.018 377.467 374.894 377.467Z" fill="#CCCCCC"/>
<path d="M323.458 384.26H409.831C411.504 384.258 413.108 383.593 414.29 382.41C415.473 381.228 416.137 379.625 416.139 377.952V330.398C416.137 328.726 415.473 327.122 414.29 325.939C413.108 324.757 411.504 324.092 409.831 324.09H323.458C321.786 324.092 320.182 324.757 318.999 325.939C317.817 327.122 317.152 328.726 317.15 330.398V377.952C317.152 379.625 317.817 381.228 318.999 382.41C320.182 383.593 321.786 384.258 323.458 384.26Z" fill="#CCCCCC"/>
<path d="M366.644 359.998C363.429 359.998 360.822 357.391 360.822 354.175C360.822 350.96 363.429 348.352 366.644 348.352C369.861 348.352 372.467 350.96 372.467 354.175C372.467 357.391 369.861 359.998 366.644 359.998Z" fill="white"/>
<path d="M103.643 448.312C103.643 440.808 131.886 434.725 166.724 434.725C201.564 434.725 229.806 440.808 229.806 448.312C229.806 453.122 218.195 457.344 200.691 459.759V534.2C200.691 535.873 200.027 537.478 198.844 538.661C197.661 539.844 196.056 540.509 194.383 540.509C192.71 540.509 191.106 539.844 189.923 538.661C188.74 537.478 188.075 535.873 188.075 534.2V461.099C181.406 461.617 174.219 461.899 166.724 461.899C159.229 461.899 152.043 461.617 145.373 461.099V534.2C145.373 535.873 144.71 537.478 143.527 538.661C142.344 539.844 140.738 540.509 139.065 540.509C137.392 540.509 135.788 539.844 134.605 538.661C133.422 537.478 132.757 535.873 132.757 534.2V459.759C115.254 457.344 103.643 453.122 103.643 448.312Z" fill="#CCCCCC"/>
<path d="M159.749 323.952C144.741 323.952 132.575 311.786 132.575 296.778C132.575 281.771 144.741 269.605 159.749 269.605C174.757 269.605 186.923 281.771 186.923 296.778C186.923 311.786 174.757 323.952 159.749 323.952Z" fill="#2F2E41"/>
<path d="M227.373 529.274H239.271L244.931 483.382H227.371L227.373 529.274Z" fill="#FFB8B8"/>
<path d="M247.769 525.875H224.823V540.321H262.217C262.217 538.424 261.843 536.546 261.118 534.792C260.392 533.04 259.327 531.447 257.986 530.106C256.645 528.764 255.051 527.7 253.298 526.974C251.546 526.248 249.667 525.875 247.769 525.875Z" fill="#2F2E41"/>
<path d="M245.946 522.634L257.298 519.072L248.959 473.59L232.205 478.847L245.946 522.634Z" fill="#FFB8B8"/>
<path d="M264.389 513.283L242.496 520.153L246.821 533.938L282.499 522.742C281.932 520.932 281.013 519.251 279.795 517.796C278.577 516.341 277.085 515.14 275.403 514.262C273.721 513.383 271.883 512.845 269.994 512.677C268.103 512.509 266.199 512.715 264.389 513.283Z" fill="#2F2E41"/>
<path d="M242.076 504.323C242.597 504.323 243.113 504.229 243.601 504.045L252.354 500.763C253.336 500.391 254.153 499.679 254.654 498.755C255.156 497.832 255.308 496.759 255.085 495.733C252.881 485.824 245.37 452.089 241.258 433.994C236.381 412.532 165.227 408.544 162.2 408.385L161.952 408.372L153.947 418.43C151.055 427.726 151.972 434.977 156.673 439.982C170.388 454.585 211.337 445.524 216.221 444.378L237.986 501.511C238.303 502.338 238.864 503.049 239.594 503.552C240.324 504.054 241.189 504.323 242.076 504.323Z" fill="#2F2E41"/>
<path d="M229.459 511.116C229.98 511.116 230.497 511.022 230.985 510.839L239.738 507.556C240.72 507.185 241.537 506.472 242.038 505.549C242.539 504.626 242.692 503.552 242.469 502.526C240.265 492.618 232.754 458.883 228.642 440.788C223.764 419.326 152.611 415.338 149.584 415.179L149.336 415.165L141.331 425.223C138.439 434.519 139.356 441.771 144.056 446.776C157.771 461.378 198.721 452.317 203.604 451.171L225.37 508.305C225.687 509.132 226.248 509.843 226.978 510.346C227.707 510.847 228.573 511.116 229.459 511.116Z" fill="#2F2E41"/>
<path d="M254.783 371.347C254.462 371.776 254.175 372.232 253.924 372.707L206.06 377.75L199.17 368.303L183.554 376.838L197.087 399.762L255.79 384.795C257.271 386.239 259.156 387.198 261.195 387.544C263.234 387.889 265.33 387.607 267.205 386.733C269.079 385.858 270.644 384.435 271.689 382.65C272.734 380.865 273.212 378.804 273.057 376.741C272.903 374.679 272.125 372.712 270.825 371.103C269.526 369.494 267.767 368.318 265.784 367.732C263.8 367.146 261.685 367.178 259.72 367.825C257.755 368.47 256.033 369.699 254.783 371.347Z" fill="#FFB8B8"/>
<path d="M143.553 429.073C144.245 429.071 144.927 428.905 145.542 428.587C155.113 423.72 173.75 415.292 191.033 413.529C191.625 413.471 192.197 413.289 192.715 412.997C193.232 412.704 193.682 412.307 194.037 411.831C194.398 411.348 194.658 410.797 194.796 410.211C194.936 409.625 194.953 409.016 194.847 408.423C193.287 399.79 189.709 377.807 190.17 360.189C190.306 354.772 188.594 349.469 185.317 345.153C182.039 340.839 177.392 337.766 172.136 336.443C168.973 335.609 165.76 334.975 162.516 334.547C158.788 334.074 155.001 334.482 151.459 335.737C147.917 336.991 144.717 339.058 142.117 341.771C139.517 344.485 137.589 347.769 136.487 351.362C135.385 354.954 135.139 358.755 135.77 362.459C138.853 380.718 141.959 406.218 139.259 424.02C139.135 424.818 139.234 425.635 139.545 426.379C139.857 427.125 140.368 427.768 141.024 428.241C141.757 428.778 142.643 429.071 143.553 429.073Z" fill="#63A5FF"/>
<path d="M189.284 382.635C189.881 382.634 190.471 382.51 191.018 382.272L203.487 376.875C204.549 376.414 205.384 375.55 205.81 374.474C206.236 373.396 206.218 372.195 205.76 371.132L196.121 348.867C195.54 347.52 194.699 346.302 193.646 345.281C192.594 344.26 191.351 343.457 189.988 342.916C188.624 342.376 187.168 342.11 185.702 342.132C184.236 342.155 182.789 342.467 181.442 343.049C180.096 343.632 178.879 344.474 177.858 345.527C176.838 346.581 176.036 347.824 175.497 349.189C174.958 350.552 174.693 352.009 174.717 353.474C174.74 354.941 175.054 356.388 175.637 357.733L185.275 379.999C185.615 380.78 186.175 381.447 186.887 381.914C187.598 382.382 188.432 382.633 189.284 382.635Z" fill="#63A5FF"/>
<path d="M160.743 326.972C147.578 326.972 136.907 316.301 136.907 303.136C136.907 289.971 147.578 279.3 160.743 279.3C173.907 279.3 184.579 289.971 184.579 303.136C184.579 316.301 173.907 326.972 160.743 326.972Z" fill="#FFB8B8"/>
<path d="M185.008 291.425C173.717 298.317 160.988 302.511 147.813 303.68L151.733 298.983C148.879 300.038 145.875 300.635 142.833 300.75C139.796 300.703 136.613 299.533 134.888 297.031C134.119 295.788 133.662 294.377 133.557 292.919C133.451 291.46 133.7 289.997 134.281 288.656C135.476 285.98 137.336 283.655 139.683 281.902C143.845 278.61 148.755 276.399 153.979 275.465C159.202 274.532 164.574 274.905 169.618 276.552C173.078 277.586 176.176 279.573 178.558 282.287C180.818 285.074 185.168 287.559 184.011 290.955L185.008 291.425Z" fill="#2F2E41"/>
<path d="M156.735 272.189C164.252 264.565 173.351 258.682 183.387 254.954C189.83 252.567 196.842 251.092 203.578 252.448C210.314 253.803 216.684 258.463 218.563 265.071C220.1 270.476 218.513 276.294 216.129 281.381C213.743 286.469 210.56 291.185 208.632 296.463C206.665 301.847 206.073 307.637 206.91 313.309C207.748 318.979 209.989 324.351 213.43 328.936C216.87 333.522 221.401 337.175 226.612 339.565C231.822 341.954 237.547 343.005 243.267 342.621C236.65 343.508 230.549 346.619 224.08 348.274C217.612 349.93 209.976 349.817 205.169 345.183C200.083 340.279 199.981 332.307 200.227 325.246L201.324 293.759C201.51 288.407 201.669 282.883 199.739 277.887C197.809 272.891 193.221 268.516 187.865 268.561C183.806 268.595 180.214 271.054 176.958 273.48C173.703 275.905 170.258 278.492 166.215 278.852C162.172 279.213 157.555 276.221 157.858 272.173" fill="#2F2E41"/>
<path d="M267.531 353.792L212.648 355.087L204.696 413.759L255.382 414.896L267.531 353.792Z" fill="#E6E6E6"/>
<path d="M209.17 369.406C208.849 369.836 208.562 370.291 208.311 370.766L160.447 375.809L153.557 366.362L137.941 374.897L151.474 397.822L210.177 382.854C211.658 384.298 213.543 385.257 215.582 385.603C217.621 385.949 219.718 385.666 221.592 384.792C223.466 383.917 225.031 382.494 226.076 380.709C227.121 378.924 227.599 376.863 227.445 374.801C227.29 372.738 226.512 370.771 225.212 369.162C223.913 367.553 222.154 366.377 220.171 365.792C218.187 365.205 216.072 365.237 214.107 365.884C212.142 366.529 210.42 367.758 209.17 369.406Z" fill="#FFB8B8"/>
<path d="M143.671 383.605C144.268 383.604 144.858 383.481 145.405 383.243L157.874 377.845C158.936 377.384 159.771 376.52 160.198 375.444C160.624 374.367 160.605 373.165 160.147 372.103L150.508 349.838C149.927 348.491 149.086 347.273 148.033 346.252C146.981 345.231 145.738 344.427 144.375 343.887C143.011 343.346 141.555 343.08 140.089 343.103C138.623 343.126 137.176 343.437 135.83 344.02C134.483 344.602 133.266 345.444 132.246 346.497C131.226 347.551 130.423 348.795 129.884 350.159C129.345 351.523 129.08 352.979 129.104 354.445C129.127 355.911 129.441 357.358 130.024 358.703L139.662 380.969C140.002 381.75 140.562 382.417 141.274 382.885C141.985 383.353 142.819 383.603 143.671 383.605Z" fill="#63A5FF"/>
<path d="M256.494 383.29H642.748C644.421 383.29 646.027 383.954 647.21 385.137C648.393 386.32 649.056 387.925 649.056 389.598C649.056 391.271 648.393 392.875 647.21 394.058C646.027 395.241 644.421 395.906 642.748 395.906H631.588V533.23C631.588 534.903 630.924 536.507 629.741 537.69C628.558 538.873 626.953 539.538 625.279 539.538C623.607 539.538 622.002 538.873 620.819 537.69C619.636 536.507 618.971 534.903 618.971 533.23V408.027L548.251 536.207C547.412 537.652 546.035 538.706 544.421 539.137C542.806 539.568 541.088 539.341 539.641 538.506C538.194 537.67 537.137 536.295 536.703 534.682C536.269 533.068 536.492 531.348 537.325 529.899L611.253 395.906H273.478V395.987L347.36 529.899C348.196 531.348 348.424 533.07 347.991 534.686C347.558 536.302 346.5 537.68 345.051 538.516C343.602 539.353 341.881 539.58 340.265 539.147C338.649 538.713 337.271 537.656 336.434 536.207L273.478 422.099V533.23C273.478 534.903 272.814 536.507 271.631 537.69C270.448 538.873 268.843 539.538 267.169 539.538C265.496 539.538 263.892 538.873 262.709 537.69C261.526 536.507 260.861 534.903 260.861 533.23V399.233L259.026 395.906H256.494C254.821 395.906 253.217 395.241 252.034 394.058C250.851 392.875 250.186 391.271 250.186 389.598C250.186 387.925 250.851 386.32 252.034 385.137C253.217 383.954 254.821 383.29 256.494 383.29Z" fill="#3F3D56"/>
<path d="M40.751 541.381H717.911C718.2 541.38 718.477 541.259 718.681 541.041C718.885 540.825 719 540.532 719 540.226C719 539.919 718.885 539.626 718.681 539.41C718.477 539.194 718.2 539.071 717.911 539.07H40.751C40.461 539.07 40.183 539.192 39.978 539.409C39.773 539.625 39.658 539.919 39.658 540.226C39.658 540.532 39.773 540.826 39.978 541.043C40.183 541.26 40.461 541.381 40.751 541.381Z" fill="#3F3D56"/>
</g>
<defs>
<linearGradient id="paint0_linear_2_97" x1="332.715" y1="169.051" x2="765.42" y2="482.243" gradientUnits="userSpaceOnUse">
<stop stop-color="#33EEFF" stop-opacity="0.9"/>
<stop offset="1" stop-color="#0044CC"/>
</linearGradient>
<linearGradient id="paint1_linear_2_97" x1="89.644" y1="268.848" x2="532.119" y2="485.967" gradientUnits="userSpaceOnUse">
<stop stop-color="#FF66F2" stop-opacity="0.9"/>
<stop offset="1" stop-color="#480AC2"/>
</linearGradient>
<clipPath id="clip0_2_97">
<rect width="778.74" height="612.094" fill="white" transform="translate(0.000305176 0.425873)"/>
</clipPath>
</defs>
</svg>
